<?xml version="1.0" encoding="utf-8"?>
<!-- Generator: Adobe Illustrator 16.0.0, SVG Export Plug-In . SVG Version: 6.00 Build 0)  -->
<!DOCTYPE svg PUBLIC "-//W3C//DTD SVG 1.1//EN" "http://www.w3.org/Graphics/SVG/1.1/DTD/svg11.dtd">
<svg version="1.1" id="Layer_1" xmlns="http://www.w3.org/2000/svg" xmlns:xlink="http://www.w3.org/1999/xlink" x="0px" y="0px"
	 width="87.419px" height="142.912px" viewBox="0 0 87.419 142.912" enable-background="new 0 0 87.419 142.912"
	 xml:space="preserve">
<g>
	<linearGradient id="SVGID_1_" gradientUnits="userSpaceOnUse" x1="14.5312" y1="94.1064" x2="87.4996" y2="51.9781">
		<stop  offset="0" style="stop-color:#8DC63F"/>
		<stop  offset="1" style="stop-color:#417B56"/>
	</linearGradient>
	
		<path fill="url(#SVGID_1_)" stroke="#122B19" stroke-width="2" stroke-linecap="round" stroke-linejoin="round" stroke-miterlimit="10" d="
		M41.741,141.236c0,0,7.882-5.546,8.069-21.685c0.355-30.819-11.338-40.615-10.591-63.038c0.297-8.916-4.73-12.558-3.53-21.18
		C38.715,13.598,54.684,9.098,58.131,2.598C59.9-0.74,64.688,23.23,62.67,30.542c0,0-3.025,19.668-21.182,26.728
		c0,0-1.95,8.029,2.695,19.328c5.654,13.757,11,27.5,11.426,37.658c0.943,22.535-7.564,26.979-7.564,26.979H41.741z"/>
	<linearGradient id="SVGID_2_" gradientUnits="userSpaceOnUse" x1="49.1133" y1="82.8081" x2="90.7624" y2="58.762">
		<stop  offset="0" style="stop-color:#8DC63F"/>
		<stop  offset="1" style="stop-color:#417B56"/>
	</linearGradient>
	
		<path fill="url(#SVGID_2_)" stroke="#122B19" stroke-width="2" stroke-linecap="round" stroke-linejoin="round" stroke-miterlimit="10" d="
		M53.516,90.432c0,0-0.207-19.497,7.5-27.334c9.834-10,24.168-14,24.168-14s-0.182,21.979-8.668,30.834
		C65.016,91.932,53.516,90.432,53.516,90.432z"/>
	<linearGradient id="SVGID_3_" gradientUnits="userSpaceOnUse" x1="13.6016" y1="93.9272" x2="35.4687" y2="81.3022">
		<stop  offset="0" style="stop-color:#8DC63F"/>
		<stop  offset="1" style="stop-color:#417B56"/>
	</linearGradient>
	
		<path fill="url(#SVGID_3_)" stroke="#122B19" stroke-width="2" stroke-linecap="round" stroke-linejoin="round" stroke-miterlimit="10" d="
		M44.35,106.932c0,0-1.166-16.501-10-26.334C25.517,70.765,4.518,68.602,2.518,69.572c0,0,5.498,17.36,13.666,27.86
		C24.35,107.932,44.35,106.932,44.35,106.932z"/>
</g>
</svg>
